<svg height="512" viewBox="0 0 512 512" width="512" xmlns="http://www.w3.org/2000/svg"><g id="Filled_outline" data-name="Filled outline"><path d="m316.5 112.333s9.5 72.603-44.5 135.667h-48c20.952-22.208 29.829-52.347 29.835-82.41 0-15.076-2.25-30.092-5.683-44.759-4.485-19.164-15.152-41.164-15.152-41.164l75.333-11.334s7.334 21.334 8.167 44z" fill="#96b268"/><path d="m112 248v80h-24a24 24 0 0 0 -24 24 24 24 0 0 0 24 24h24v32a48 48 0 0 0 48 48h40v32h176v-35.279a189.435 189.435 0 0 1 20-84.721 189.435 189.435 0 0 0 20-84.721v-35.279z" fill="#fdc8a2"/><path d="m64 56 16-32 16 32 40 8-24 24 8 32-40-16-40 16 8-32-24-24z" fill="#ffb431"/><path d="m200 248c-24-80-80-128-80-128l-40-16-40 16s104 48 128 128z" fill="#de5540"/><path d="m232 248c-16-104-96-184-96-184l-24 24 8 32s56 48 80 128z" fill="#d64a34"/><path d="m438.18 141.2-52.335-36.838 39.269-55.789a57.888 57.888 0 0 1 55.97-23.92 57.888 57.888 0 0 1 -3.635 60.759z" fill="#de5540"/><path d="m462.665 50.816a16.019 16.019 0 0 0 -22.293 3.874 16 16 0 1 0 22.294-3.875z" fill="#ffb431"/><g fill="#348ed8"><path d="m408.869 71.648-35.377-5.335-27.629 39.251 26.898-10.416 13.084 9.21z"/><path d="m461.204 108.487 16.958 31.502-27.629 39.252.73-28.836-13.083-9.209z"/><path d="m413.219 162.759-39.251-27.629 24.961-21.563 26.167 18.419z"/></g><path d="m360 152s-40 40-40 96h40c32-24 40-72 40-72z" fill="#ffb431"/><path d="m340.676 188h46.648v16.001h-46.648z" fill="#f9a614" transform="matrix(.514 -.857 .857 .514 8.655 407.286)"/><circle cx="272" cy="63.995" fill="#348ed8" r="40"/><path d="m232.813 72.057a40.009 40.009 0 0 1 77.471-19.688" fill="#348ed8"/><path d="m48 240v-32l24 16 24-16v40l24 24h-40l-16 32-13-32.333-27-7.667z" fill="#ffb431"/><path d="m273.117 173.5c5.112-29.557 1.121-48.092 1.08-48.276l15.6-3.554c.2.865 4.795 21.555-.914 54.558zm-101.211-146.326-13.427 8.7a230.038 230.038 0 0 1 13.293 23.644l14.372-7.034a246.176 246.176 0 0 0 -14.238-25.31zm28.094 468.826h176a8 8 0 0 0 8-8v-35.28a182.211 182.211 0 0 1 1.392-22.425l-15.877-1.977a198.145 198.145 0 0 0 -1.515 24.402v27.28h-160v-16h56v-16h-104a40.045 40.045 0 0 1 -40-40v-.5a65.434 65.434 0 0 0 38.628-18.817l7.029-7.029-11.314-11.314-7.03 7.03a49.561 49.561 0 0 1 -27.313 13.985v-15.355a8 8 0 0 0 -8-8h-24a16 16 0 0 1 0-32h24a8 8 0 0 0 8-8v-37h-16v29h-16a32 32 0 0 0 0 64h16v24a56.063 56.063 0 0 0 56 56h32v24a8 8 0 0 0 8 8zm154.343-349.657c-1.649 1.649-38.678 39.294-42.09 93.657h-23.814c44.147-61.417 36.373-125.8 35.994-128.7l-15.867 2.063c.022.175 2.175 17.729-2.054 42.419a181.159 181.159 0 0 1 -38.245 84.218h-27.567c36.036-52.5 15.837-118.709 14.931-121.59l-15.266 4.79c.181.579 15.8 52.16-6.146 96.289-2.444-9.376-5.326-18.493-8.542-27.317 3.61-35.182-2.91-67.111-18.913-92.445l-13.528 8.544c8.51 13.472 13.933 29.2 16.193 46.51a424.753 424.753 0 0 0 -54.581-81.836l-12.196 10.355c19.539 23.006 65.676 83.551 79.833 156.7h-16.607c-15.788-48.766-42.587-85.427-62.666-107.885q-1.848-2.067-3.556-3.906l-11.734 10.878q1.61 1.737 3.358 3.689c18.357 20.531 42.626 53.555 57.72 97.224h-15.2c-19.266-54.942-73.533-94.366-104.857-113.3l-8.273 13.693c28.411 17.173 76.847 52.087 96.03 99.607h-16.342a174.994 174.994 0 0 0 -16.718-21.4l-11.807 10.8q4.838 5.289 9.167 10.971v15.629h287v27.28a181.55 181.55 0 0 1 -19.156 81.143 197.571 197.571 0 0 0 -16.756 48.338l15.668 3.239a181.745 181.745 0 0 1 15.4-44.422 197.558 197.558 0 0 0 20.844-88.298v-35.28a8 8 0 0 0 -6.111-7.766c7.361-9.577 16.508-23.581 20.192-37.908l-15.5-3.985c-4.6 17.885-20.612 36.466-25.333 41.659h-17.474c21.812-26.315 27.827-60.942 28.118-62.685l-15.782-2.639c-.074.439-7.561 43.072-34.873 65.324h-28.921c3.5-47.731 36.992-81.992 37.349-82.352l-5.665-5.648zm5.88 203.769a228.631 228.631 0 0 0 -10.844 25.462l15.072 5.366a212.915 212.915 0 0 1 10.082-23.673 165.605 165.605 0 0 0 15.2-46.807l-15.781-2.638a149.7 149.7 0 0 1 -13.729 42.29zm31.777-66.833v-3.279h-16v3.279c0 4-.167 8.063-.5 12.066l15.946 1.31c.369-4.437.554-8.937.554-13.376zm-290.595-234.356 36.164 7.232a8 8 0 0 1 4.088 13.5l-20.8 20.8 6.9 27.606a8 8 0 0 1 -10.732 9.368l-37.025-14.813-37.029 14.812a8 8 0 0 1 -10.732-9.368l6.9-27.606-20.8-20.8a8 8 0 0 1 4.088-13.5l36.173-7.231 14.25-28.5a8 8 0 0 1 14.31 0zm18.368 19.99-25.342-5.068a8 8 0 0 1 -5.586-4.267l-8.845-17.689-8.845 17.689a8 8 0 0 1 -5.586 4.267l-25.342 5.068 13.43 13.43a8 8 0 0 1 2.1 7.6l-4.205 16.821 25.477-10.192a8 8 0 0 1 5.942 0l25.473 10.189-4.2-16.821a8 8 0 0 1 2.1-7.6zm342.892-18.1a16.019 16.019 0 0 0 -22.293 3.874 16 16 0 1 0 22.294-3.875zm25.463-29.959a65.531 65.531 0 0 1 -4.138 69.156l-13.4 19.035 14.615 27.155a8 8 0 0 1 -.5 8.4l-27.628 39.251a8 8 0 0 1 -14.539-4.807l.622-24.555-14.29-10.063-8.187 21.213a8 8 0 0 1 -12.069 3.662l-39.251-27.629a8 8 0 0 1 -.625-12.6l17.208-14.864-14.289-10.058-22.9 8.87a8 8 0 0 1 -9.431-12.065l27.628-39.251a8.005 8.005 0 0 1 7.736-3.306l30.483 4.602 13.4-19.036a65.531 65.531 0 0 1 63.7-27.226 8 8 0 0 1 5.855 4.119zm-93.252 56.774-17.688-2.667-9.575 13.6 2.259-.874a8 8 0 0 1 7.493.918l6.542 4.605zm20.507 57.3-15.951-11.228-12.481 10.781 22.493 15.833zm53.39 4.5-8.473-15.751-10.969 15.582 6.542 4.6a8 8 0 0 1 3.393 6.745l-.061 2.421zm7.057-107.316a49.558 49.558 0 0 0 -44.174 21.062l-16.24 23.071v.008l-18.419 26.168 39.25 27.628 34.659-49.249a49.579 49.579 0 0 0 4.924-48.688zm-92.97 148-13.72-8.232-24 40 13.72 8.232zm-52.342-108.78-11.6 2.8a47.973 47.973 0 0 1 -84.048 20.246s-17.024 3.867-18.911 3.867a24.017 24.017 0 0 1 -23.282-18.381 24.348 24.348 0 0 1 -.677-5.639 23.937 23.937 0 0 1 18.382-23.325l16.8-4.052a47.9 47.9 0 0 1 7.667-13.248l12.379 10.138a31.971 31.971 0 0 0 -4.842 32.362l61.491-14.813a32.037 32.037 0 0 0 -31.877-29.287 31.661 31.661 0 0 0 -14.153 3.291l-7.088-14.345a47.968 47.968 0 0 1 53.322 7.385l15.186-3.658a24.024 24.024 0 0 1 28.951 17.713 24.362 24.362 0 0 1 .672 5.634 23.928 23.928 0 0 1 -18.372 23.312zm-103.8 8.547a47.769 47.769 0 0 1 -2.718-15.806l-9.867 2.379a7.982 7.982 0 0 0 -6.133 7.773 8.252 8.252 0 0 0 .233 1.909 7.993 7.993 0 0 0 9.643 5.874zm73.761-1.31-47.186 11.365a31.95 31.95 0 0 0 47.181-11.365zm32.411-30.554a8.263 8.263 0 0 0 -.232-1.908 8 8 0 0 0 -9.644-5.884l-8.263 1.99a47.617 47.617 0 0 1 4.8 15.3l7.215-1.738a7.972 7.972 0 0 0 6.124-7.76zm-60.89-8.02v16.005h16v-16zm-253.657 218.348 21.657-21.656v-28.687a8 8 0 0 1 12.438-6.656l19.562 13.041 19.562-13.041a8 8 0 0 1 12.438 6.656v36.687l21.657 21.656a8 8 0 0 1 -5.657 13.657h-35.056l-13.789 27.578a8 8 0 0 1 -7.155 4.422c-.109 0-.218 0-.327-.007a8 8 0 0 1 -7.1-5.009l-11.532-28.693-23.227-6.591a8 8 0 0 1 -3.471-13.353zm20.946 1.682 13.9 3.946a8 8 0 0 1 5.237 4.711l6.37 15.844 8.052-16.1a8 8 0 0 1 7.152-4.426h20.687l-10.344-10.343a8 8 0 0 1 -2.343-5.657v-25.052l-11.562 7.708a8 8 0 0 1 -8.876 0l-11.562-7.708v17.052a8 8 0 0 1 -2.343 5.657zm-17.034-84.218c.208.047 21.027 4.826 45.777 18.963l7.936-13.894c-26.982-15.41-49.3-20.478-50.233-20.686zm357.634-133.035c2.728-7.383 4.111-16.391 4.111-26.772h-16c0 10.566-1.7 17.375-3.119 21.228zm112.088 171.5 2.046-15.869c-24.172-3.121-41.814 13.447-42.553 14.153l11.06 11.562c.126-.124 13.039-11.97 29.447-9.85zm-11.977 49.728h-16v16h-16v16h16v16h16v-16h16v-16h-16zm-416 176v-16h16v-16h-16v-16h-16v16h-16v16h16v16zm384-80v-16h-16v16zm8 16v16h16v-16zm-440-8h16v-16h-16zm280-96v16h16v-16zm-32 48v16h16v-16zm-152-304v16h16v-16zm224 128h16v-16h-16z"/></g></svg>