<?xml version="1.0" encoding="iso-8859-1"?>
<!-- Generator: Adobe Illustrator 19.0.0, SVG Export Plug-In . SVG Version: 6.00 Build 0)  -->
<svg version="1.1" id="Capa_1" xmlns="http://www.w3.org/2000/svg" xmlns:xlink="http://www.w3.org/1999/xlink" x="0px" y="0px"
	 viewBox="0 0 512.001 512.001" style="enable-background:new 0 0 512.001 512.001;" xml:space="preserve">
<circle style="fill:#21D8DE;" cx="240.2" cy="206.93" r="182.14"/>
<path style="fill:#11B9C1;" d="M328.88,47.841c-35.448-19.759-74.648-26.408-112.022-21.548
	c22.219,2.901,44.272,9.974,65.036,21.548c87.863,48.976,119.386,159.906,70.41,247.769
	c-29.217,52.415-80.483,84.773-135.747,91.958c71.798,9.376,145.331-24.86,182.732-91.958
	C448.266,207.747,416.742,96.818,328.88,47.841z"/>
<g>
	<path style="fill:#BBF44D;" d="M234.721,267.335c-18.698-11-13.575-79.656-60.803-81.494
		c-15.116-0.588-44.326-43.689-37.621-51.678c16.273-19.391-1.599-32.989,12.633-43.036c7.741-5.465,17.065-11.276,23.974-0.88
		s-6.03,22.817,1.715,26.749s16.017-9.069,24.701-17.798s18.968,1.311,25.239-2.689s17.452-11.626,33.374-11.701
		s9.837-10.396,15.669-12.054c5.832-1.657,21.54,10.485,28.821,6.826c15.877-7.978,24.945-20.955,25.981-31.996
		c-61.541-34.069-134.297-28.743-189.146,7.702c-0.006,0.004-0.012,0.008-0.018,0.012c-16.126,10.718-31.857,30.499-36.766,49.229
		c-9.23,35.216,15.681,70.811,27.703,85.397c3.082,3.739,2.77,9.22-0.754,12.545c-9.991,9.428-25.807,29.575-10.201,52.454
		c21.608,31.678,16.451,40.93-0.139,63.442c-3.941,5.347-7.248,10.388-9.874,15.165c1.079,1.116,2.175,2.219,3.286,3.31
		c0.039,0.038,0.079,0.077,0.119,0.116c1.075,1.053,2.165,2.095,3.269,3.125c0.067,0.062,0.134,0.125,0.202,0.187
		c1.081,1.005,2.177,1.998,3.286,2.98c0.087,0.077,0.174,0.153,0.261,0.23c1.096,0.966,2.206,1.92,3.329,2.862
		c0.1,0.084,0.199,0.167,0.299,0.251c1.121,0.937,2.255,1.861,3.403,2.773c0.101,0.08,0.201,0.161,0.301,0.24
		c1.16,0.919,2.335,1.824,3.522,2.718c0.088,0.066,0.175,0.133,0.263,0.199c1.217,0.913,2.449,1.813,3.695,2.699
		c0.057,0.041,0.114,0.082,0.171,0.123c1.299,0.922,2.613,1.829,3.942,2.721c0.002,0.001,0.004,0.003,0.006,0.004
		c17.171-2.035,41.351-2.135,51.32-12.364c13.492-13.845,65.778-6.643,75.244-31.393
		C268.194,306.288,253.42,278.335,234.721,267.335z"/>
	<path style="fill:#BBF44D;" d="M399.29,295.61c39.835-71.463,26.413-158.185-27.26-214.421c3.218,18.936,7.103,46.976,2.891,51.817
		c-6.428,7.388-5.066,21.519-5.066,21.519s-25.847,13.219-35.28,32.214s-7.732,62.063,0.086,68.239s36.429-3.387,40.466,9.222
		c8.744,27.316-48.306,88.502-75.008,114.717C340.808,364.758,376.663,336.202,399.29,295.61z"/>
</g>
<path style="fill:#A2D82B;" d="M422.354,205.711c-0.003-0.456-0.003-0.913-0.01-1.369c-0.02-1.316-0.052-2.631-0.1-3.944
	c-0.011-0.304-0.03-0.608-0.042-0.912c-0.043-1.037-0.093-2.072-0.154-3.107c-0.03-0.509-0.066-1.018-0.101-1.527
	c-0.056-0.839-0.117-1.677-0.185-2.515c-0.044-0.542-0.09-1.084-0.139-1.626c-0.075-0.829-0.157-1.658-0.243-2.486
	c-0.054-0.516-0.105-1.032-0.163-1.547c-0.115-1.024-0.242-2.046-0.375-3.068c-0.04-0.304-0.073-0.61-0.114-0.914
	c-0.173-1.284-0.363-2.566-0.564-3.845c-0.078-0.497-0.164-0.993-0.246-1.489c-0.136-0.825-0.276-1.649-0.423-2.472
	c-0.099-0.551-0.202-1.102-0.306-1.652c-0.148-0.782-0.301-1.563-0.459-2.342c-0.11-0.545-0.22-1.09-0.335-1.634
	c-0.179-0.846-0.368-1.689-0.559-2.532c-0.105-0.462-0.204-0.924-0.312-1.385c-0.292-1.244-0.597-2.485-0.916-3.723
	c-0.12-0.468-0.249-0.933-0.373-1.399c-0.218-0.822-0.439-1.643-0.668-2.462c-0.155-0.552-0.315-1.102-0.475-1.653
	c-0.215-0.739-0.433-1.477-0.657-2.213c-0.17-0.56-0.342-1.119-0.517-1.677c-0.237-0.754-0.483-1.506-0.73-2.257
	c-0.171-0.52-0.339-1.042-0.515-1.561c-0.362-1.069-0.736-2.134-1.118-3.196c-0.189-0.525-0.384-1.047-0.577-1.57
	c-0.316-0.854-0.634-1.707-0.963-2.557c-0.21-0.543-0.428-1.084-0.644-1.625c-0.279-0.7-0.56-1.399-0.848-2.096
	c-0.232-0.562-0.467-1.124-0.705-1.684c-0.291-0.686-0.588-1.37-0.888-2.053c-0.24-0.546-0.477-1.092-0.722-1.635
	c-0.347-0.77-0.703-1.535-1.061-2.3c-0.249-0.533-0.495-1.066-0.749-1.597c-0.5-1.044-1.01-2.084-1.53-3.119
	c-0.261-0.52-0.531-1.035-0.797-1.553c-0.345-0.67-0.691-1.339-1.044-2.005c-0.292-0.551-0.589-1.099-0.887-1.647
	c-0.346-0.637-0.697-1.272-1.052-1.906c-0.304-0.543-0.607-1.085-0.917-1.625c-0.38-0.663-0.768-1.323-1.157-1.982
	c-0.292-0.495-0.58-0.993-0.877-1.485c-0.648-1.075-1.306-2.143-1.977-3.206c-0.299-0.473-0.607-0.941-0.91-1.412
	c-0.422-0.656-0.845-1.311-1.276-1.962c-0.348-0.525-0.702-1.047-1.056-1.568c-0.402-0.594-0.807-1.186-1.217-1.775
	c-0.366-0.526-0.734-1.052-1.106-1.575c-0.423-0.594-0.851-1.185-1.282-1.775c-0.365-0.5-0.727-1.002-1.097-1.499
	c-0.549-0.736-1.108-1.466-1.668-2.195c-0.506-0.658-1.017-1.312-1.532-1.963c-0.533-0.674-1.067-1.347-1.61-2.014
	c-0.396-0.486-0.799-0.967-1.2-1.449c-0.466-0.56-0.933-1.119-1.407-1.674c-0.421-0.494-0.845-0.984-1.272-1.474
	c-0.475-0.545-0.955-1.087-1.437-1.626c-0.426-0.477-0.85-0.954-1.281-1.427c-0.54-0.592-1.089-1.178-1.638-1.764
	c-0.381-0.406-0.756-0.817-1.141-1.22c3.218,18.936,7.103,46.976,2.891,51.817c-6.428,7.388-5.066,21.519-5.066,21.519
	s-0.706,0.362-1.91,1.041c9.682,32.943,10.105,68.586,0.056,102.692c3.469,0.961,6.097,2.73,7.125,5.942
	c8.744,27.316-48.305,88.502-75.008,114.717c13.982-4.865,27.392-11.431,39.891-19.599c0.009-0.006,0.018-0.012,0.027-0.017
	c4.494-2.938,8.869-6.085,13.111-9.434c0.105-0.083,0.21-0.166,0.314-0.249c0.945-0.75,1.884-1.51,2.816-2.28
	c0.108-0.089,0.216-0.178,0.324-0.267c3.076-2.553,6.077-5.216,8.996-7.987c0.138-0.131,0.275-0.264,0.412-0.396
	c0.802-0.766,1.597-1.54,2.387-2.322c0.206-0.205,0.412-0.41,0.618-0.616c0.745-0.745,1.483-1.498,2.216-2.258
	c0.19-0.197,0.381-0.393,0.571-0.591c0.857-0.896,1.706-1.801,2.546-2.717c0.044-0.048,0.089-0.094,0.132-0.142
	c0.917-1.001,1.824-2.015,2.72-3.04c0.086-0.098,0.17-0.198,0.255-0.297c0.764-0.877,1.52-1.763,2.269-2.657
	c0.232-0.277,0.462-0.558,0.693-0.836c0.608-0.734,1.211-1.474,1.808-2.219c0.255-0.319,0.51-0.638,0.763-0.959
	c0.59-0.746,1.174-1.499,1.753-2.257c0.228-0.298,0.457-0.594,0.684-0.893c0.722-0.957,1.437-1.922,2.143-2.896
	c0.067-0.093,0.137-0.184,0.204-0.277c0.777-1.077,1.543-2.166,2.3-3.264c0.194-0.281,0.383-0.567,0.576-0.849
	c0.551-0.809,1.098-1.623,1.638-2.444c0.251-0.381,0.498-0.765,0.746-1.149c0.482-0.745,0.959-1.494,1.432-2.248
	c0.251-0.4,0.502-0.801,0.75-1.204c0.487-0.79,0.967-1.588,1.443-2.388c0.211-0.355,0.425-0.707,0.634-1.064
	c0.676-1.154,1.345-2.316,1.999-3.49c0.008-0.014,0.015-0.029,0.023-0.043c0.694-1.246,1.368-2.497,2.03-3.752
	c0.215-0.408,0.423-0.818,0.635-1.227c0.454-0.876,0.902-1.753,1.34-2.633c0.231-0.464,0.459-0.93,0.686-1.395
	c0.418-0.859,0.828-1.72,1.232-2.582c0.208-0.444,0.417-0.887,0.621-1.332c0.469-1.024,0.926-2.051,1.375-3.08
	c0.118-0.271,0.242-0.54,0.358-0.811c0.557-1.294,1.096-2.591,1.621-3.892c0.145-0.36,0.283-0.721,0.425-1.081
	c0.377-0.952,0.748-1.906,1.108-2.861c0.177-0.47,0.349-0.941,0.522-1.411c0.319-0.869,0.632-1.74,0.937-2.612
	c0.166-0.476,0.333-0.952,0.495-1.428c0.322-0.945,0.633-1.891,0.938-2.839c0.123-0.382,0.251-0.763,0.371-1.146
	c0.415-1.318,0.817-2.639,1.2-3.962c0.074-0.256,0.142-0.514,0.216-0.77c0.307-1.077,0.606-2.155,0.892-3.235
	c0.122-0.461,0.239-0.923,0.357-1.384c0.229-0.891,0.452-1.783,0.667-2.676c0.118-0.492,0.235-0.985,0.349-1.477
	c0.21-0.904,0.41-1.809,0.605-2.714c0.097-0.45,0.197-0.9,0.291-1.351c0.251-1.207,0.489-2.416,0.715-3.626
	c0.025-0.136,0.054-0.271,0.079-0.407c0.245-1.333,0.472-2.666,0.686-4.001c0.071-0.443,0.136-0.887,0.203-1.33
	c0.14-0.912,0.275-1.824,0.4-2.737c0.07-0.509,0.137-1.019,0.203-1.528c0.113-0.875,0.218-1.749,0.318-2.624
	c0.056-0.493,0.114-0.987,0.166-1.48c0.106-0.999,0.2-1.999,0.289-2.999c0.032-0.355,0.069-0.709,0.098-1.064
	c0.11-1.329,0.205-2.659,0.286-3.988c0.024-0.4,0.041-0.799,0.063-1.199c0.052-0.951,0.099-1.902,0.135-2.853
	c0.02-0.515,0.035-1.03,0.05-1.545c0.026-0.853,0.045-1.706,0.059-2.558c0.008-0.524,0.016-1.048,0.02-1.572
	C422.364,207.505,422.361,206.608,422.354,205.711z"/>
<path style="fill:#FFA426;" d="M333.319,469.821l-76.403-17.679c-0.679-0.157-1.384-0.157-2.063,0l-76.404,17.683
	c-16.134,3.734-27.559,18.105-27.559,34.666l0,0h209.99v-0.004C360.88,487.926,349.454,473.554,333.319,469.821z"/>
<path style="fill:#EF8E18;" d="M333.319,469.821l-76.403-17.679c-0.679-0.157,56.979,26.116,56.979,52.346v0.004h46.985v-0.004
	C360.88,487.926,349.454,473.554,333.319,469.821z"/>
<path style="fill:#A2D82B;" d="M281.894,47.841c12.046,6.715,23.026,14.601,32.892,23.426c8.202-7.255,12.892-15.942,13.618-23.683
	c-3.786-2.096-7.614-4.039-11.478-5.838c-0.111-0.052-0.221-0.104-0.332-0.155c-1.872-0.867-3.751-1.7-5.639-2.499
	c-0.108-0.046-0.216-0.09-0.324-0.136c-3.872-1.629-7.775-3.117-11.704-4.459c-0.04-0.014-0.08-0.028-0.12-0.042
	c-1.901-0.649-3.809-1.259-5.721-1.841c-0.185-0.056-0.37-0.113-0.556-0.169c-1.876-0.565-3.757-1.099-5.642-1.6
	c-0.159-0.042-0.319-0.082-0.478-0.124c-3.845-1.011-7.707-1.89-11.58-2.641c-0.191-0.037-0.381-0.076-0.572-0.112
	c-1.838-0.35-3.678-0.668-5.52-0.96c-0.292-0.046-0.585-0.092-0.877-0.136c-1.823-0.28-3.647-0.535-5.472-0.758
	c-0.242-0.03-0.484-0.055-0.725-0.084c-1.831-0.216-3.662-0.409-5.494-0.569c-0.086-0.008-0.173-0.017-0.259-0.025
	c-1.831-0.158-3.662-0.279-5.493-0.38c-0.34-0.019-0.68-0.04-1.021-0.057c-1.745-0.087-3.489-0.147-5.233-0.183
	c-0.394-0.008-0.787-0.014-1.181-0.02c-1.747-0.025-3.492-0.03-5.236-0.005c-0.309,0.005-0.618,0.015-0.927,0.021
	c-1.633,0.032-3.264,0.085-4.893,0.161c-0.279,0.013-0.558,0.021-0.837,0.035c-1.722,0.088-3.44,0.207-5.156,0.344
	c-0.431,0.034-0.862,0.068-1.293,0.105c-1.671,0.145-3.338,0.312-5.003,0.503c-0.434,0.05-0.868,0.104-1.302,0.157
	c-0.469,0.057-0.935,0.128-1.403,0.189C239.127,29.212,261.153,36.28,281.894,47.841z"/>
<path d="M453.004,146.457c-15.446-54.355-50.26-99.835-98.409-128.869l3.396-6.091c2.079-3.73,0.741-8.438-2.988-10.517
	c-3.731-2.079-8.438-0.74-10.517,2.988l-18.783,33.697c-23.254-11.774-48.238-18.527-73.653-20.099
	c-0.443-0.028-0.886-0.047-1.329-0.072c-1.344-0.074-2.69-0.134-4.036-0.178c-0.827-0.029-1.655-0.055-2.482-0.073
	c-0.745-0.015-1.49-0.017-2.235-0.023c-25.686-0.248-51.349,4.75-75.431,14.933c-0.223,0.093-0.447,0.187-0.67,0.281
	c-1.044,0.446-2.087,0.897-3.125,1.363c-37.232,16.564-67.993,44.57-88.188,80.799C49.89,158.842,43.933,210.045,57.78,258.771
	c13.14,46.239,42.629,84.986,83.415,109.898L129.5,389.65l0,0l0,0l-7.088,12.715c-2.079,3.73-0.741,8.438,2.988,10.517
	c1.192,0.664,2.483,0.98,3.757,0.98c2.713,0,5.345-1.431,6.76-3.968l3.392-6.085c31.551,16.203,65.874,24.452,100.566,24.452
	c2.758,0,5.518-0.057,8.28-0.161v17.886l-71.398,16.524c-19.651,4.548-33.375,21.811-33.375,41.982c0,4.147,3.362,7.509,7.509,7.509
	H360.88c4.147,0,7.509-3.366,7.509-7.513c0-20.171-13.725-37.435-33.377-41.982l-71.396-16.52v-19.017
	c12.414-1.348,24.804-3.751,37.059-7.233c56.842-16.153,103.991-53.475,132.762-105.09
	C462.208,263.029,469.157,203.299,453.004,146.457z M333.09,59.058c11.727,7.347,22.409,15.954,31.913,25.63
	c4.759,28.638,4.677,40.9,3.796,43.932c-5.354,6.582-6.461,15.845-6.575,21.574c-8.243,4.877-26.3,16.946-34.374,33.205
	c-4.785,9.635-7.481,25.481-7.209,42.387c0.168,10.473,1.608,28.957,9.366,35.085c5.352,4.228,13.436,4.059,21.994,3.883
	c4.656-0.097,9.473-0.197,12.936,0.487c1.849,0.365,2.928,0.905,3.038,1.25c1.275,3.984,0.307,10.1-2.801,17.685
	c-1.573,3.838,0.264,8.223,4.101,9.795c3.84,1.571,8.224-0.264,9.795-4.101c4.592-11.208,5.641-20.353,3.207-27.957
	c-4.072-12.723-19.398-12.403-30.588-12.173c-3.884,0.08-10.284,0.214-12.273-0.628c-3.996-5.778-6.66-41.827,1.884-59.031
	c8.195-16.502,31.744-28.751,31.974-28.869c2.729-1.395,4.333-4.332,4.057-7.384c-0.385-4.256,0.158-12.333,3.254-15.891
	c2.942-3.382,4.605-9.129,3.158-26.186c-0.134-1.58-0.293-3.234-0.476-4.959c15.838,22.743,26.288,49.306,30.017,76.906
	c2.052,15.193,2.112,30.36,0.235,45.235c-0.022,0.175-0.045,0.35-0.068,0.525c-0.127,0.979-0.261,1.956-0.404,2.932
	c-0.048,0.328-0.101,0.654-0.151,0.982c-0.135,0.881-0.27,1.762-0.419,2.641c-0.196,1.156-0.401,2.311-0.621,3.464
	c-0.085,0.449-0.181,0.896-0.269,1.345c-0.173,0.868-0.347,1.737-0.533,2.603c-0.091,0.427-0.188,0.852-0.283,1.278
	c-0.203,0.913-0.412,1.825-0.631,2.735c-0.088,0.366-0.176,0.732-0.267,1.098c-0.26,1.053-0.529,2.104-0.809,3.153
	c-0.057,0.215-0.112,0.431-0.171,0.646c-0.723,2.669-1.51,5.324-2.363,7.963c-0.016,0.049-0.033,0.099-0.049,0.148
	c-0.399,1.232-0.814,2.46-1.242,3.685c-0.07,0.201-0.141,0.401-0.212,0.601c-0.393,1.112-0.797,2.221-1.213,3.327
	c-0.074,0.196-0.146,0.393-0.221,0.589c-0.475,1.249-0.962,2.494-1.466,3.734c-0.007,0.017-0.014,0.035-0.021,0.052
	c-0.538,1.322-1.093,2.639-1.664,3.952c-0.009,0.02-0.018,0.041-0.027,0.061c-0.52,1.192-1.056,2.378-1.604,3.561
	c-0.146,0.315-0.295,0.629-0.443,0.943c-0.422,0.899-0.853,1.796-1.291,2.69c-0.185,0.377-0.37,0.753-0.558,1.129
	c-0.436,0.873-0.881,1.743-1.332,2.61c-0.178,0.341-0.352,0.684-0.532,1.024c-0.628,1.189-1.267,2.374-1.924,3.553
	c-0.944,1.694-1.916,3.362-2.908,5.012c-0.382,0.634-0.78,1.256-1.169,1.885c-0.612,0.989-1.224,1.979-1.852,2.952
	c-0.515,0.796-1.045,1.58-1.572,2.366c-0.519,0.775-1.037,1.55-1.566,2.314c-0.606,0.874-1.225,1.738-1.846,2.599
	c-0.466,0.647-0.932,1.292-1.406,1.931c-0.683,0.921-1.375,1.833-2.075,2.738c-0.427,0.552-0.856,1.102-1.289,1.648
	c-0.751,0.948-1.509,1.889-2.279,2.821c-0.397,0.481-0.8,0.957-1.202,1.433c-0.81,0.959-1.625,1.913-2.455,2.854
	c-0.382,0.433-0.77,0.858-1.156,1.286c-0.858,0.953-1.719,1.902-2.597,2.836c-0.384,0.408-0.776,0.805-1.163,1.209
	c-0.889,0.927-1.779,1.853-2.688,2.76c-0.442,0.441-0.895,0.867-1.342,1.303c-0.864,0.843-1.724,1.689-2.605,2.513
	c-2.761,2.582-5.594,5.069-8.499,7.45l0,0c-5.408,4.433-11.066,8.495-16.915,12.215c8.63-9.692,17.726-20.58,25.655-31.501
	c2.436-3.356,1.691-8.052-1.664-10.488c-3.357-2.436-8.052-1.691-10.488,1.664c-17.443,24.024-40.912,48.066-51.475,58.507
	c-18.056,6.103-37.076,9.269-56.269,9.268c-26.218-0.001-52.757-5.931-77.587-18.321c12.877-1.623,25.419-4.543,32.94-12.262
	c3.885-3.986,16.053-6.103,26.789-7.971c20.163-3.508,43.017-7.483,50.091-25.98c5.091-13.314-13.442-44.264-33.611-56.13
	c-4.31-2.536-8.001-14.297-11.257-24.674c-7.48-23.834-17.724-56.477-53.061-57.851c-1.309-0.051-6.505-2.248-14.72-11.674
	c-10.74-12.325-16.338-24.709-16.661-28.628c9.681-12.154,8.636-23.175,7.938-30.532c-0.639-6.749-0.513-8.12,2.494-10.243
	c2.426-1.713,8.107-5.728,10.785-5.224c0.974,0.182,1.954,1.387,2.605,2.366c1.517,2.282,0.811,5.288-0.533,9.966
	c-1.361,4.74-4.194,14.601,5.103,19.321c2.21,1.122,4.345,1.612,6.407,1.612c8.368-0.001,15.533-8.078,21.52-14.832
	c1.818-2.05,3.697-4.169,5.497-5.979c1.874-1.883,3.449-1.826,8.712-0.606c4.209,0.976,9.972,2.313,15.241-1.048l0.857-0.549
	c6.158-3.948,15.463-9.913,28.514-9.975c13.952-0.066,17.633-7.293,19.095-11.595c1.672,0.601,3.8,1.523,5.408,2.219
	c7.549,3.27,16.105,6.975,23.323,3.349C318.75,79.779,328.491,69.887,333.09,59.058z M140.498,350.299
	c-0.524-0.364-1.049-0.732-1.578-1.108l-0.125-0.089c-1.194-0.849-2.374-1.711-3.541-2.587l-0.25-0.189
	c-1.139-0.858-2.266-1.727-3.38-2.609l-0.287-0.229c-1.1-0.874-2.187-1.76-3.283-2.677l-0.265-0.221
	c-1.076-0.903-2.141-1.818-3.189-2.742l-0.252-0.222c-1.063-0.941-2.113-1.893-3.178-2.882l-0.166-0.154
	c-0.8-0.746-1.591-1.498-2.381-2.262c1.861-2.982,4.014-6.127,6.505-9.507c9.045-12.273,15.033-21.144,15.839-32.192
	c0.802-11.007-3.701-22.577-15.541-39.935c-11.705-17.16-1.484-32.725,9.151-42.761c6.363-6.004,6.976-16.011,1.396-22.782
	c-2.843-3.449-5.582-7.083-8.142-10.8c-2.351-3.415-7.026-4.279-10.443-1.925c-3.415,2.352-4.278,7.027-1.925,10.443
	c2.804,4.072,5.806,8.053,8.922,11.834c0.572,0.694,0.523,1.708-0.113,2.308c-20.74,19.571-24.841,42.222-11.251,62.146
	c19.406,28.449,15.299,34.021,0.019,54.755c-1.845,2.504-3.52,4.899-5.058,7.218c-16.445-19.017-28.677-41.558-35.754-66.462
	c-12.75-44.868-7.265-92.016,15.445-132.758c1.821-3.267,3.745-6.452,5.749-9.571c-1.306,11.6,0.226,23.92,4.611,36.763
	c1.34,3.925,5.607,6.021,9.532,4.68c3.925-1.34,6.02-5.608,4.68-9.532c-4.661-13.651-5.504-26.375-2.504-37.817
	c4.204-16.038,18.029-34.479,33.629-44.859c0.016-0.01,0.032-0.021,0.047-0.031c8.046-5.346,16.419-9.954,25.026-13.844
	c1.035-0.464,2.075-0.917,3.121-1.361c0.232-0.099,0.465-0.198,0.697-0.297c6.537-2.745,13.281-5.114,20.208-7.083
	c15.733-4.471,31.742-6.694,47.662-6.724c0.162,0,0.325-0.004,0.487-0.003c1.308,0.001,2.614,0.032,3.92,0.063
	c0.701,0.018,1.402,0.029,2.104,0.055c0.888,0.032,1.774,0.082,2.661,0.127c1.113,0.059,2.227,0.118,3.339,0.198
	c0.557,0.039,1.113,0.088,1.669,0.133c1.431,0.117,2.861,0.244,4.29,0.396c0.305,0.032,0.61,0.068,0.915,0.102
	c1.665,0.187,3.328,0.392,4.989,0.627c0.123,0.017,0.246,0.036,0.369,0.053c13.159,1.892,26.173,5.302,38.79,10.245
	c0.045,0.018,0.09,0.034,0.134,0.052c1.736,0.682,3.463,1.395,5.183,2.135c0.086,0.037,0.173,0.072,0.26,0.109
	c1.706,0.737,3.402,1.505,5.091,2.299c0.088,0.041,0.177,0.08,0.265,0.121c1.765,0.834,3.521,1.697,5.267,2.593
	c-2.514,7.112-9.253,15.467-20.601,21.229c-1.995,0.219-7.719-2.262-10.819-3.605c-6.305-2.731-11.753-5.09-16.89-3.629
	c-6.086,1.729-7.66,6.934-8.417,9.435c-0.163,0.541-0.405,1.34-0.568,1.631c-0.223,0.126-1.401,0.686-4.669,0.702
	c-17.413,0.083-29.861,8.062-36.548,12.35l-0.536,0.343c-0.827-0.013-2.756-0.43-4.064-0.733
	c-5.509-1.279-14.733-3.417-22.752,4.643c-2.104,2.115-4.129,4.399-6.087,6.607c-1.884,2.125-4.824,5.441-7.241,7.598
	c1.619-5.65,3.829-13.981-1.511-22.015c-3.276-4.93-7.433-7.896-12.353-8.816c-8.226-1.537-15.775,3.178-22.205,7.718
	c-10.357,7.312-9.447,16.916-8.783,23.928c0.646,6.815,1.204,12.7-5.271,20.415c-3.856,4.595-3.641,11.549,0.66,21.26
	c3.799,8.581,10.412,18.584,17.688,26.758c9.195,10.33,17.516,15.71,24.733,15.991c22.986,0.894,30.794,20.186,39.317,47.341
	c4.657,14.839,8.679,27.654,17.971,33.121c16.407,9.653,27.641,32.769,27.112,38.041c-4.197,10.353-22.442,13.527-38.551,16.329
	c-14.241,2.478-27.693,4.818-34.971,12.286c-6.201,6.363-23.043,7.896-36.577,9.127
	C145.356,349.824,142.887,350.048,140.498,350.299z M331.626,477.136c10.278,2.378,18.067,10.094,20.74,19.846H159.404
	c2.674-9.748,10.462-17.464,20.738-19.842l75.743-17.53L331.626,477.136z M419.931,307.116
	c-26.76,48.008-70.614,82.721-123.483,97.745c-50.382,14.317-103.199,9.106-149.603-14.573l7.857-14.096
	c26.775,13.557,55.84,20.469,85.218,20.469c17.404,0,34.918-2.421,52.12-7.309c44.488-12.642,82.042-40.418,107.012-78.829
	c0.115-0.177,0.227-0.356,0.342-0.534c0.655-1.015,1.307-2.034,1.945-3.064c0.325-0.524,0.639-1.055,0.959-1.582
	c0.438-0.723,0.88-1.441,1.31-2.171c0.761-1.292,1.509-2.594,2.241-3.907c0.711-1.275,1.402-2.557,2.081-3.843
	c0.204-0.387,0.403-0.776,0.604-1.164c0.48-0.924,0.955-1.85,1.419-2.78c0.21-0.42,0.417-0.841,0.624-1.263
	c0.469-0.955,0.928-1.914,1.38-2.875c0.167-0.355,0.336-0.71,0.501-1.067c0.579-1.251,1.146-2.507,1.696-3.767
	c0.025-0.056,0.05-0.112,0.075-0.168c0.615-1.411,1.211-2.828,1.79-4.251c0.024-0.059,0.047-0.118,0.07-0.177
	c0.529-1.302,1.04-2.609,1.539-3.92c0.094-0.247,0.186-0.495,0.278-0.742c0.436-1.16,0.86-2.322,1.272-3.488
	c0.09-0.254,0.18-0.509,0.269-0.763c0.443-1.27,0.872-2.543,1.287-3.82c0.037-0.113,0.075-0.226,0.112-0.339
	c0.913-2.83,1.758-5.677,2.534-8.54c0.083-0.307,0.162-0.615,0.244-0.923c0.28-1.056,0.553-2.113,0.814-3.173
	c0.115-0.465,0.227-0.93,0.339-1.396c0.215-0.899,0.422-1.8,0.623-2.702c0.122-0.545,0.245-1.09,0.362-1.636
	c0.17-0.795,0.33-1.591,0.489-2.388c0.59-2.936,1.108-5.884,1.555-8.841c0.028-0.184,0.058-0.368,0.085-0.552
	c0.173-1.166,0.332-2.334,0.483-3.503c0.009-0.069,0.018-0.137,0.027-0.206c3.211-25.095,1.343-50.818-5.781-75.887
	c-13.14-46.239-42.63-84.985-83.416-109.898l7.853-14.089C441.059,88.173,473.912,210.274,419.931,307.116z"/>
<g>
</g>
<g>
</g>
<g>
</g>
<g>
</g>
<g>
</g>
<g>
</g>
<g>
</g>
<g>
</g>
<g>
</g>
<g>
</g>
<g>
</g>
<g>
</g>
<g>
</g>
<g>
</g>
<g>
</g>
</svg>
