<svg height="512" viewBox="0 0 60 60" width="512" xmlns="http://www.w3.org/2000/svg"><g id="025---Competition" fill="none"><path id="Path" d="m36 37h13c1.1045695 0 2 .8954305 2 2v16h-15z" fill="#4e98ec"/><path id="Path" d="m9 55v-11c0-1.1045695.8954305-2 2-2h13v13z" fill="#ec5e69"/><path id="Rectangle" d="m27 21.54h6v7.46h-6z" fill="#f2a332"/><path id="Path" d="m27 28h6c1.1045695 0 2 .8954305 2 2v3h-10v-3c0-1.1045695.8954305-2 2-2z" fill="#fab344"/><path id="Path" d="m40 4h4c1.1032019.0032948 1.9967052.89679813 2 2v5c0 2.209139-1.790861 4-4 4h-24c-2.209139 0-4-1.790861-4-4v-5c.0032948-1.10320187.8967981-1.9967052 2-2z" fill="#f2a332"/><path id="Path" d="m58 59h-56c-.33054385.0029717-.64089564-.158734-.8278507-.4313434-.18695507-.2726093-.22599945-.6203772-.1041493-.9276566l1.209-3.015c.15383817-.3815352.52563657-.6299299.937-.626h53.572c.4099086-.0022812.7796982.2458306.933.626l1.209 3.015c.1215771.306618.0829686.6535932-.1030362.9259859-.1860048.2723928-.4951261.434647-.8249638.4330141z" fill="#7d838f"/><path id="Path" d="m23 54v-20c0-1.1045695.8954305-2 2-2h10c1.1045695 0 2 .8954305 2 2v20" fill="#fccd3a"/><path id="Path" d="m21 1h18c.5522847 0 1 .44771525 1 1v11c0 2.6521649-1.0535684 5.195704-2.9289322 7.0710678s-4.4189029 2.9289322-7.0710678 2.9289322c-5.5228475 0-10-4.4771525-10-10v-11c0-.55228475.4477153-1 1-1z" fill="#fab344"/><path id="Path" d="m30.8 5.521 1.059 2.236 2.368.358c.344308.0632201.6253607.31178183.7301938.64578004.1048331.3339982.0162311.69858463-.2301938.94721996l-1.713 1.741.4 2.457c.0690679.3408173-.0632558.6910664-.3404254.9010757-.2771695.2100092-.6501572.2426307-.9595746.0839243l-1.7-.932c-.2595962-.143056-.5744038-.143056-.834 0l-1.7.932c-.3094174.1587064-.6824051.1260849-.9595746-.0839243-.2771696-.2100093-.4094933-.5602584-.3404254-.9010757l.4-2.457-1.708-1.741c-.2464249-.24863533-.3350269-.61322176-.2301938-.94721996.1048331-.33399821.3858858-.58255994.7301938-.64578004l2.368-.358 1.06-2.236c.1439606-.31210961.4562893-.512.8-.512s.6560394.19989039.8.512z" fill="#fccd3a"/><g fill="#373737"><path id="Shape" d="m58.647 54.254c-.3037073-.7607068-1.0419177-1.258136-1.861-1.254h-4.786v-14c0-1.6568542-1.3431458-3-3-3h-11v-2c-.0052514-1.2667854-.8056491-2.3937454-2-2.816v-1.184c-.0052514-1.2667854-.8056491-2.3937454-2-2.816v-3.94c.928251-.3609631 1.8029691-.8467681 2.6-1.444.4418278-.3313708.5313708-.9581722.2-1.4s-.9581722-.5313708-1.4-.2c-1.555018 1.1738237-3.4516914 1.8060482-5.4 1.8-4.9682782-.0055111-8.9944889-4.0317218-9-9v-11h18v11c.001755 1.5793058-.4121017 3.1312685-1.2 4.5-.1970594.3099891-.2083077.703062-.0292979 1.0238128.1790099.3207509.5194594.5175425.886748.5125711s.702287-.2109055.8725499-.5363839c.4507257-.7867405.8017583-1.6265312 1.045-2.5h1.425c2.7600532-.0033061 4.9966939-2.2399468 5-5v-5c0-1.65685425-1.3431458-3-3-3h-3v-1c0-1.1045695-.8954305-2-2-2h-18c-1.1045695 0-2 .8954305-2 2v1h-3c-1.6568542 0-3 1.34314575-3 3v5c.0033061 2.7600532 2.2399468 4.9966939 5 5h1.426c.9453305 3.3039132 3.3756595 5.9789757 6.574 7.236v3.948c-1.1943509.4222546-1.9947486 1.5492146-2 2.816v1.184c-1.1943509.4222546-1.9947486 1.5492146-2 2.816v7h-11c-1.65685425 0-3 1.3431458-3 3v9h-4.786c-.8189731-.0045662-1.55711144.4930819-1.86 1.254l-1.211 3.016c-.24548488.6115064-.17050321 1.3050869.2 1.85.3719466.5502768.99280965.8800049 1.657.88h56c.665606.0013352 1.2882612-.3285483 1.661-.88.3710231-.5450957.4460244-1.2392325.2-1.851zm-14.647-49.254c.5522847 0 1 .44771525 1 1v5c0 1.6568542-1.3431458 3-3 3h-1.066c.031-.332.066-.665.066-1v-8zm-26 9c-1.6568542 0-3-1.3431458-3-3v-5c0-.55228475.4477153-1 1-1h3v8c0 .338.021.67.051 1zm31 24c.5522847 0 1 .4477153 1 1v14h-12v-15zm-19-14c.6709575-.0015664 1.3403818-.0641576 2-.187v3.187h-4v-3.191c.6594358.1246037 1.3288997.1885375 2 .191zm-4 6c0-.5522847.4477153-1 1-1h6c.5522847 0 1 .4477153 1 1v1h-8zm-1 3h10c.5522847 0 1 .4477153 1 1v19h-12v-19c0-.5522847.4477153-1 1-1zm-15 11c0-.5522847.4477153-1 1-1h11v10h-12zm48 14-56 .013 1.214-3.013h53.577z"/><path id="Shape" d="m35.9 8.418c-.2214735-.68216013-.8081998-1.18147698-1.517-1.291l-1.842-.279-.832-1.755c-.307276-.66584548-.9736728-1.0922494-1.707-1.0922494s-1.399724.42640392-1.707 1.0922494l-.832 1.755-1.842.279c-.7103184.10812793-1.2988842.607693-1.521 1.291-.2366642.69699229-.0598116 1.46786836.457 1.992l1.357 1.378-.314 1.955c-.1279816.7348812.1783011 1.4778211.787 1.909.5826918.4164504 1.3526652.4615599 1.98.116l1.638-.9 1.638.9c.6269986.3470423 1.3978152.3018834 1.98-.116.6085327-.4308522.9148226-1.1734205.787-1.908l-.321-1.956 1.351-1.378c.5182932-.52325455.6963857-1.29447221.46-1.992zm-5.1-2.897-.9.427zm1.5 5.225c-.2241058.2276958-.3259267.5487661-.274.864l.421 2.322-1.55-.849c-.5598999-.3102262-1.2401001-.3102262-1.8 0l-1.509.826.378-2.3c.0519267-.3152339-.0498942-.6363042-.274-.864l-1.632-1.662 2.226-.338c.3288117-.04968589.6114132-.25957558.754-.56l.96-2.025.96 2.025c.1425868.30042442.4251883.51031411.754.56l2.226.338z"/></g></g></svg>