<svg id="Capa_1" enable-background="new 0 0 512.363 512.363" height="512" viewBox="0 0 512.363 512.363" width="512" xmlns="http://www.w3.org/2000/svg"><g><g><path d="m439.581 72.204h24.832c10.084 0 18.259-8.175 18.259-18.259v-13.712c0-10.084-8.175-18.259-18.259-18.259h-24.832z" fill="#fee45a"/><g><path d="m419.622 154.856v84.78c0 2.46-.97 4.82-2.71 6.56l-7.72 7.71c-2.46 2.46-2.46 6.46 0 8.92l7.68 7.68c.84.84 1.31 1.98 1.31 3.17v63.53l-5.24 13.98c-.5 1.35-.76 2.78-.76 4.22l.62 119.88h-313.85v-123.97l7.22-7.22c1.85-1.85 1.85-4.86 0-6.71l-6.42-6.43c-1.45-1.44-2.26-3.4-2.26-5.45v-21.49c0-1.71.68-3.35 1.89-4.56l13.99-13.99c2.68-2.68 4.18-6.31 4.18-10.1v-28.29c0-3.79-1.5-7.42-4.18-10.1l-9.67-9.67c-1.41-1.41-2.2-3.32-2.2-5.31v-51.24l6.78-6.77c2.7-2.71 2.7-7.09 0-9.8l-4.22-4.22v-110.4h306.64l-.36 102.17 6.57 6.57c1.74 1.73 2.71 4.09 2.71 6.55z" fill="#fef1da"/></g><g><path d="m412.483 413.707h-215.127c-19.991 0-36.197-16.206-36.197-36.197v-242.657c0-19.991 16.206-36.197 36.197-36.197h213.137l.208-59.09h-249.542-57.098v110.4l4.22 4.22c2.7 2.71 2.7 7.09 0 9.8l-6.78 6.77v51.239c0 1.992.791 3.903 2.2 5.311l9.67 9.67c2.676 2.676 4.18 6.307 4.18 10.092v28.298c0 3.79-1.506 7.426-4.186 10.106l-13.984 13.984c-1.21 1.21-1.89 2.851-1.89 4.563v21.487c0 2.05.81 4.01 2.26 5.45l6.42 6.43c1.85 1.85 1.85 4.86 0 6.71l-7.22 7.22v123.97h62.208 251.642z" fill="#fae2c0"/><path d="m72.07 15.523h368.728v63.133h-368.728z" fill="#fef1da"/><path d="m431.158 86.487h6.756c6.996 0 12.667-5.671 12.667-12.667v-53.46c0-6.996-5.671-12.667-12.667-12.667h-6.756c-6.996 0-12.667 5.671-12.667 12.667v53.459c-.001 6.996 5.671 12.668 12.667 12.668z" fill="#c68d7a"/><path d="m72.782 72.204h-24.832c-10.084 0-18.259-8.175-18.259-18.259v-13.712c0-10.084 8.175-18.259 18.259-18.259h24.832z" fill="#fee45a"/><path d="m81.206 86.487h-6.756c-6.996 0-12.667-5.671-12.667-12.667v-53.46c0-6.996 5.671-12.667 12.667-12.667h6.756c6.996 0 12.667 5.671 12.667 12.667v53.459c0 6.996-5.672 12.668-12.667 12.668z" fill="#c68d7a"/><path d="m67.061 433.707h376.52v62.603h-376.52z" fill="#fef1da"/><path d="m442.581 490.389h21.832c10.084 0 18.259-8.175 18.259-18.259v-13.713c0-10.084-8.175-18.259-18.259-18.259h-21.832z" fill="#fee45a"/><path d="m431.158 504.671h6.756c6.996 0 12.667-5.671 12.667-12.667v-53.459c0-6.996-5.671-12.667-12.667-12.667h-6.756c-6.996 0-12.667 5.671-12.667 12.667v53.459c-.001 6.995 5.671 12.667 12.667 12.667z" fill="#c68d7a"/><path d="m72.782 490.389h-24.832c-10.084 0-18.259-8.175-18.259-18.259v-13.713c0-10.084 8.175-18.259 18.259-18.259h24.832z" fill="#fee45a"/><path d="m81.206 504.671h-6.756c-6.996 0-12.667-5.671-12.667-12.667v-53.459c0-6.996 5.671-12.667 12.667-12.667h6.756c6.996 0 12.667 5.671 12.667 12.667v53.459c0 6.995-5.672 12.667-12.667 12.667z" fill="#c68d7a"/></g></g><g><path d="m503.863 457.774h-13.708c-.344-13.907-11.755-25.115-25.742-25.115h-7.213c-2.525-8.257-10.213-14.282-19.286-14.282h-6.756c-4.264 0-8.217 1.339-11.479 3.606v-66.58c0-.543.096-1.074.286-1.581l5.243-13.984c.315-.842.478-1.733.478-2.633v-63.533c0-3.198-1.245-6.205-3.507-8.466l-6.839-6.839 6.872-6.872c3.167-3.168 4.911-7.379 4.911-11.858v-34.321c0-4.142-3.357-7.5-7.5-7.5s-7.5 3.358-7.5 7.5v34.321c0 .473-.185.918-.518 1.251l-7.719 7.718c-5.382 5.382-5.382 14.14 0 19.521l6.799 6.798v40.709h-81.742c-4.143 0-7.5 3.358-7.5 7.5s3.357 7.5 7.5 7.5h81.742v5.21l-4.765 12.708c-.824 2.196-1.242 4.5-1.242 6.85v70.804h-243.868c-4.142 0-7.5 3.358-7.5 7.5s3.358 7.5 7.5 7.5h250.18v48.133h-309.617v-48.133h27.475c4.142 0 7.5-3.358 7.5-7.5s-3.358-7.5-7.5-7.5h-22.398v-71.783l5.026-5.026c2.313-2.313 3.587-5.388 3.587-8.659s-1.274-6.347-3.587-8.659l-6.424-6.424c-.039-.039-.061-.092-.061-.146v-21.059l13.681-13.681c4.115-4.115 6.381-9.586 6.381-15.406v-28.289c0-5.82-2.266-11.291-6.381-15.406l-9.668-9.678v-21.956h35.825c4.142 0 7.5-3.358 7.5-7.5s-3.358-7.5-7.5-7.5h-35.825v-11.172l4.579-4.579c5.625-5.625 5.625-14.776 0-20.4l-2.025-2.025v-60.702h291.287v55.581c0 1.989.79 3.897 2.197 5.304l6.564 6.564c.334.334.519.779.519 1.252v18.496c0 4.142 3.357 7.5 7.5 7.5s7.5-3.358 7.5-7.5v-18.496c0-4.479-1.744-8.69-4.912-11.859l-4.368-4.368v-49.703c3.556 3.138 8.21 5.059 13.314 5.059h6.756c9.073 0 16.761-6.025 19.286-14.282h7.213c13.987 0 25.399-11.209 25.742-25.115h14.708c4.143 0 7.5-3.358 7.5-7.5s-3.357-7.5-7.5-7.5h-14.708c-.344-13.907-11.755-25.115-25.742-25.115h-7.214c-2.525-8.257-10.213-14.282-19.286-14.282h-6.756c-6.472 0-12.226 3.076-15.919 7.83h-23.258c-4.143 0-7.5 3.358-7.5 7.5s3.357 7.5 7.5 7.5h19.009v48.133h-309.617v-48.132h258.646c4.143 0 7.5-3.358 7.5-7.5s-3.357-7.5-7.5-7.5h-262.895c-3.693-4.754-9.447-7.83-15.918-7.83h-6.756c-9.073 0-16.761 6.024-19.286 14.282h-7.214c-13.988 0-25.399 11.209-25.742 25.115h-14.708c-4.142 0-7.5 3.358-7.5 7.5s3.358 7.5 7.5 7.5h14.708c.344 13.906 11.755 25.115 25.742 25.115h7.213c2.525 8.258 10.213 14.282 19.286 14.282h6.756c6.146 0 11.649-2.771 15.351-7.12v63.099c0 1.989.79 3.897 2.197 5.303l3.816 3.816-6.369 6.369c-1.407 1.406-2.197 3.314-2.197 5.303v51.235c0 4.013 1.563 7.785 4.4 10.622l9.662 9.662c1.282 1.282 1.988 2.986 1.988 4.799v28.289c0 1.813-.706 3.517-1.988 4.799l-13.991 13.991c-2.633 2.633-4.083 6.134-4.083 9.858v21.497c0 4.062 1.582 7.881 4.454 10.753l4.477 4.477-5.275 5.275c-1.407 1.406-2.197 3.314-2.197 5.303v69.885c-3.007-1.783-6.502-2.826-10.244-2.826h-6.756c-9.073 0-16.761 6.024-19.286 14.282h-7.214c-13.988 0-25.399 11.209-25.742 25.115h-14.708c-4.142 0-7.5 3.358-7.5 7.5s3.358 7.5 7.5 7.5h14.708c.344 13.906 11.755 25.115 25.742 25.115h7.213c2.525 8.258 10.213 14.282 19.286 14.282h6.756c6.472 0 12.226-3.077 15.919-7.831h318.115c3.693 4.754 9.447 7.831 15.919 7.831h6.756c9.073 0 16.761-6.025 19.286-14.282h7.213c13.987 0 25.399-11.209 25.742-25.115h13.708c4.143 0 7.5-3.358 7.5-7.5s-3.357-7.499-7.5-7.499zm-28.691-417.541v13.713c0 5.932-4.826 10.758-10.759 10.758h-6.332v-35.23h6.332c5.933 0 10.759 4.827 10.759 10.759zm-44.014-25.04h6.756c2.849 0 5.167 2.318 5.167 5.167v53.459c0 2.85-2.318 5.167-5.167 5.167h-6.756c-2.85 0-5.168-2.318-5.168-5.167v-53.459c0-2.85 2.319-5.167 5.168-5.167zm-393.967 38.753v-13.713c0-5.933 4.826-10.759 10.759-10.759h6.332v35.23h-6.332c-5.932 0-10.759-4.826-10.759-10.758zm49.182 19.873c0 2.85-2.318 5.167-5.167 5.167h-6.756c-2.849 0-5.167-2.318-5.167-5.167v-53.459c0-2.849 2.318-5.167 5.167-5.167h6.756c2.849 0 5.167 2.318 5.167 5.167zm-49.182 398.311v-13.713c0-5.933 4.826-10.759 10.759-10.759h6.332v35.23h-6.332c-5.932 0-10.759-4.826-10.759-10.758zm44.015 25.041h-6.756c-2.849 0-5.167-2.318-5.167-5.167v-53.459c0-2.85 2.318-5.167 5.167-5.167h6.756c2.849 0 5.167 2.318 5.167 5.167v53.459c0 2.849-2.318 5.167-5.167 5.167zm361.875-5.168c0 2.85-2.318 5.167-5.167 5.167h-6.756c-2.85 0-5.168-2.318-5.168-5.167v-53.459c0-2.85 2.318-5.167 5.168-5.167h6.756c2.849 0 5.167 2.318 5.167 5.167zm32.091-19.873c0 5.932-4.826 10.758-10.759 10.758h-6.332v-35.23h6.332c5.933 0 10.759 4.826 10.759 10.759z"/><path d="m183.951 200.036c4.142 0 7.5-3.358 7.5-7.5s-3.358-7.5-7.5-7.5h-6.589c-4.142 0-7.5 3.358-7.5 7.5s3.358 7.5 7.5 7.5z"/><path d="m270.104 248.681c-4.143 0-7.5 3.358-7.5 7.5s3.357 7.5 7.5 7.5h54.788c4.143 0 7.5-3.358 7.5-7.5s-3.357-7.5-7.5-7.5z"/><path d="m180.656 318.464h11.267c4.142 0 7.5-3.358 7.5-7.5s-3.358-7.5-7.5-7.5h-11.267c-4.142 0-7.5 3.358-7.5 7.5s3.358 7.5 7.5 7.5z"/></g></g></svg>