<svg height="480pt" viewBox="0 0 480 480" width="480pt" xmlns="http://www.w3.org/2000/svg"><path d="m368 104v240h-336v-240c.027344-8.824219 7.175781-15.972656 16-16h304c8.824219.027344 15.972656 7.175781 16 16zm0 0" fill="#5aaae7"/><path d="m296 232c0 8.835938-7.164062 16-16 16s-16-7.164062-16-16 7.164062-16 16-16 16 7.164062 16 16zm0 0" fill="#ff9811"/><path d="m208 184h-56v-56c30.929688 0 56 25.070312 56 56zm0 0" fill="#ff6243"/><path d="m128 208h56c0 30.929688-25.070312 56-56 56s-56-25.070312-56-56 25.070312-56 56-56zm0 0" fill="#00ccb3"/><g fill="#acabb1"><path d="m184 344v32h-168c-4.417969 0-8-3.582031-8-8v-24zm0 0"/><path d="m472 296v160c-.027344 8.824219-7.175781 15.972656-16 16h-32v-192h32c8.824219.027344 15.972656 7.175781 16 16zm0 0"/><path d="m368 168h-32v32c.027344 8.824219 7.175781 15.972656 16 16h96c8.824219-.027344 15.972656-7.175781 16-16v-32zm0 0"/></g><path d="m368 280h-168c-8.824219.027344-15.972656 7.175781-16 16v160c.027344 8.824219 7.175781 15.972656 16 16h224v-192zm0 0" fill="#ffb655"/><path d="m448 8h-96c-8.824219.027344-15.972656 7.175781-16 16v144h128v-144c-.027344-8.824219-7.175781-15.972656-16-16zm0 0" fill="#ffde55"/><path d="m40 104c0-4.417969 3.582031-8 8-8h264v-16h-264c-13.253906 0-24 10.746094-24 24v232h-16c-4.417969 0-8 3.582031-8 8v24c0 8.835938 7.164062 16 16 16h144v-16h-144v-16h144v-16h-120zm0 0"/><path d="m360 240h16v16h-16zm0 0"/><path d="m352 224h96c13.253906 0 24-10.746094 24-24v-176c0-13.253906-10.746094-24-24-24h-96c-13.253906 0-24 10.746094-24 24v176c0 13.253906 10.746094 24 24 24zm96-16h-96c-4.417969 0-8-3.582031-8-8v-24h112v24c0 4.417969-3.582031 8-8 8zm-96-192h96c4.417969 0 8 3.582031 8 8v136h-112v-136c0-4.417969 3.582031-8 8-8zm0 0"/><path d="m392 184h16v16h-16zm0 0"/><path d="m216 184c-.039062-35.328125-28.671875-63.960938-64-64-4.417969 0-8 3.582031-8 8v56c0 4.417969 3.582031 8 8 8h56c4.417969 0 8-3.582031 8-8zm-56-8v-39.335938c20.128906 3.441407 35.894531 19.207032 39.335938 39.335938zm0 0"/><path d="m184 200h-48v-48c0-4.417969-3.582031-8-8-8-35.347656 0-64 28.652344-64 64s28.652344 64 64 64 64-28.652344 64-64c0-4.417969-3.582031-8-8-8zm-56 56c-24.96875.023438-45.789062-19.101562-47.875-43.984375-2.089844-24.886719 15.25-47.210937 39.875-51.351563v47.335938c0 4.417969 3.582031 8 8 8h47.335938c-3.933594 23.082031-23.921876 39.96875-47.335938 40zm0 0"/><path d="m248 120h-16c-2.121094 0-4.15625.84375-5.65625 2.34375l-16 16 11.3125 11.3125 13.65625-13.65625h12.6875zm0 0"/><path d="m264 120h32v16h-32zm0 0"/><path d="m264 152h32v16h-32zm0 0"/><path d="m56 296h96v16h-96zm0 0"/><path d="m200 224h48v16h-48zm0 0"/><path d="m256 232c0 13.253906 10.746094 24 24 24s24-10.746094 24-24-10.746094-24-24-24-24 10.746094-24 24zm24-8c4.417969 0 8 3.582031 8 8s-3.582031 8-8 8-8-3.582031-8-8 3.582031-8 8-8zm0 0"/><path d="m392 40h48v16h-48zm0 0"/><path d="m392 72h48v16h-48zm0 0"/><path d="m392 104h16v16h-16zm0 0"/><path d="m424 104h16v16h-16zm0 0"/><path d="m456 272h-256c-13.253906 0-24 10.746094-24 24v160c0 13.253906 10.746094 24 24 24h256c13.253906 0 24-10.746094 24-24v-160c0-13.253906-10.746094-24-24-24zm-264 184v-160c0-4.417969 3.582031-8 8-8h216v176h-216c-4.417969 0-8-3.582031-8-8zm272 0c0 4.417969-3.582031 8-8 8h-24v-176h24c4.417969 0 8 3.582031 8 8zm0 0"/><path d="m440 368h16v16h-16zm0 0"/><path d="m384 424v-88h-16v88h-16v-64h-16v64h-16v-48h-16v48h-16v-72h-16v72h-16v-32h-16v32h-16v-104h-16v112c0 4.417969 3.582031 8 8 8h184v-16zm0 0"/></svg>