<svg id="Capa_1" enable-background="new 0 0 528.133 528.133" height="512" viewBox="0 0 528.133 528.133" width="512" xmlns="http://www.w3.org/2000/svg"><g><g id="Flat_26_"><g id="School_Sports_1_"><g><circle cx="232.328" cy="211.988" fill="#ff8d5c" r="203.644"/></g><g><path d="m298.242 19.255c36.332 106.515-20.562 222.315-127.077 258.647-42.65 14.548-88.92 14.548-131.57 0 36.42 106.427 152.22 163.178 258.647 126.759s163.178-152.221 126.758-258.647c-20.387-59.576-67.183-106.372-126.758-126.759z" fill="#ff774d"/></g><g><path d="m512.507 364.927c3.928-11.245 6.945-22.788 9.02-34.518 1.651-9.491-2.322-19.082-10.2-24.625-9.764-6.829-20.062-12.859-30.794-18.034l7.462 38.589z" fill="#b56959"/></g><g><path d="m212.762 505.155c-17.541-6.744-34.154-15.691-49.437-26.627-7.647-5.52-11.525-14.883-10.021-24.194 3.067-18.492 8.467-36.521 16.071-53.654l32.332 52.237z" fill="#a85b4a"/></g><g><path d="m247.349 515.362c36.756 7.625 82.484 7.142 134.303-14.321 60.425-25.029 95.146-64.511 115.076-100.66l-16.195-68.706-36.17-57.819c-39.659-11.48-92.147-14.86-152.597 10.179-51.822 21.466-84.5 53.463-105.098 84.847l21.695 76.711z" fill="#b56959"/></g><g><path d="m389.063 476.502c-86.562-.001-157.286-69.118-159.277-155.658-16.706 13.754-31.243 29.949-43.119 48.038l21.695 76.711 38.987 69.768c36.756 7.625 82.484 7.143 134.303-14.321 20.062-8.201 38.955-19.013 56.189-32.156-15.764 5.061-32.221 7.631-48.778 7.618z" fill="#a85b4a"/></g><g><path d="m444.304 273.85 52.411 126.531c6.255-11.355 11.537-23.22 15.791-35.467l-31.957-77.151c-11.667-5.652-23.792-10.306-36.245-13.913z" fill="#f2f2ff"/></g><g><path d="m212.619 505.094c11.276 4.365 22.892 7.796 34.73 10.257l-60.669-146.468c-6.631 10.111-12.419 20.75-17.305 31.81z" fill="#ccccf0"/></g><g><circle cx="93.514" cy="409.045" fill="#f2f2ff" r="87.26"/></g><g><path d="m132.807 331.109c-7.756 61.22-59.505 107.322-121.21 107.984 16.607 45.242 66.745 68.455 111.987 51.848s68.455-66.745 51.848-111.987c-7.627-20.776-22.864-37.879-42.625-47.845z" fill="#e6e6ff"/></g></g></g><g id="Outline_26_"><g id="School_Sports_copy"><g><path d="m514.922 300.674c-10.038-7.027-20.629-13.23-31.667-18.548-11.926-5.772-24.316-10.531-37.039-14.226-.04-.013-.075-.035-.116-.047-3.547-1.027-7.1-1.963-10.659-2.809 4.508-17.325 6.786-35.155 6.78-53.057 0-115.735-94.157-209.893-209.893-209.893s-209.893 94.159-209.893 209.894c-.072 39.62 11.133 78.443 32.307 111.932-6.905 3.163-13.401 7.149-19.348 11.873-40.457 32.097-47.233 90.914-15.136 131.37s90.913 47.233 131.37 15.136c1.157-.918 2.292-1.863 3.404-2.834 3.774 4.086 97.909 81.655 229.012 27.348 52.577-21.777 92.331-56.571 118.156-103.414l-.009-.005c6.421-11.66 11.845-23.843 16.214-36.417 4.044-11.563 7.147-23.434 9.279-35.496 2.033-11.87-2.93-23.853-12.762-30.807zm.449 28.663c-.985 5.656-2.242 11.373-3.753 17.107l-18.636-44.992c5.124 2.987 10.055 6.141 14.749 9.444 5.885 4.163 8.857 11.336 7.64 18.441zm-92.18-66.872c-4.873-.889-9.755-1.615-14.647-2.178-1.601-73.82-40.201-118.079-67.151-150.484-12.793-15.382-24.121-29.021-30.734-42.592 31.137 1.572 55.599 11.219 76.781 22.823 38.319 48.68 51.557 112.528 35.751 172.431zm-113.439 8.28c-1.276-49.345-11.863-124.265-65.013-195.815 17.029-4.638 34.538-7.282 52.177-7.879 6.806 16.982 19.886 32.729 34.869 50.744 28.635 34.43 62.461 75.125 64.292 141.411-29.244-1.593-58.527 2.321-86.325 11.539zm55.394-204.659c-18.925-7.285-38.962-11.263-59.235-11.76-1.96-8.426-2.094-17.175-.393-25.657 21.953 8.807 42.149 21.48 59.628 37.417zm-71.503-41.732c-2.254 9.886-2.426 20.134-.504 30.09-19.238.989-38.29 4.255-56.759 9.728-13.41-16.703-28.632-31.866-45.386-45.212 34.092-7.289 69.508-5.428 102.649 5.394zm-118.228-1.385c6.579 4.586 26.335 19.352 48.038 45.185-12.929 4.262-32.095 10.493-60.935 29.42-23.673-21.48-50.746-25.474-69.952-24.846 23.072-23.187 51.54-40.285 82.849-49.759zm-95.373 63.558c14.85-2.358 45.703-3.695 71.873 18.376-66.17 48.002-96.403 114.748-108.745 163.631-18.802-63.023-4.976-131.27 36.872-182.007zm-28.826 204.098c5.574-32.035 27.745-118.303 109.729-176.814 16.849 19.97 11.643 41.026 3.357 74.533-9.018 36.469-20.541 83.149-8.793 150.772-24.187-21.485-57.765-28.936-88.77-19.697-5.965-9.15-11.157-18.782-15.523-28.794zm-38.181 109.151c2.078-18.49 10.504-35.687 23.843-48.659 1.652 4.579 3.042 9.248 4.163 13.984l-9.118 5.624c-7.104 4.384-.401 14.927 6.561 10.638l5.139-3.17c.97 6.304 1.59 12.657 1.859 19.03l-8.98-1.034c-8.207-.942-9.648 11.47-1.43 12.415l10.512 1.211c-.212 7.96-.913 15.899-2.1 23.773l-8.25-4.749c-7.167-4.132-13.393 6.709-6.236 10.831l12.097 6.964c-1.66 7.679-3.452 14.007-5.153 19.402-17.335-17.44-25.771-41.836-22.907-66.26zm71.21 89.749c-13.72-1.554-26.809-6.609-38.013-14.68 1.851-5.519 4.112-12.738 6.224-21.673l5.192 2.989c7.098 4.091 13.47-6.665 6.236-10.831l-8.777-5.053c1.69-9.589 2.705-19.285 3.038-29.016l9.323 1.074c8.209.949 9.65-11.47 1.43-12.415l-10.745-1.237c-.278-9.272-1.265-18.509-2.953-27.63l12.107-7.468c7.033-4.339.483-14.976-6.561-10.638l-8.487 5.235c-1.394-5.269-3.137-10.439-5.217-15.477 33.573-23.559 79.465-18.258 106.783 12.334-3.161 4.424-6.024 9.053-8.572 13.856l-7.076-7.029c-5.867-5.833-14.671 3.044-8.808 8.866l10.101 10.034c-3.716 8.497-6.776 17.265-9.153 26.229l-10.756-1.239c-8.207-.956-9.65 11.47-1.43 12.415l9.345 1.077c-1.895 9.55-3.116 19.221-3.654 28.943l-9.701 2.927c-7.944 2.398-4.278 14.35 3.61 11.966l5.738-1.731c.025 9.206.562 16.468 1.136 22.517-12.747 5.311-26.645 7.258-40.36 5.655zm52.377-11.897c-.422-5.602-.717-12.133-.579-20.071l13.334-4.023c7.93-2.393 4.285-14.353-3.61-11.966l-9.073 2.737c.642-7.931 1.77-15.815 3.379-23.608l10.454 1.204c8.209.949 9.65-11.47 1.43-12.415l-8.915-1.027c1.711-6.128 3.756-12.158 6.126-18.063l4.229 4.201c5.791 5.756 14.743-2.972 8.808-8.866l-7.556-7.507c2.156-4.344 4.553-8.565 7.178-12.642 24.031 37.676 12.97 87.7-24.706 111.731-.167.106-.333.211-.499.315zm27.256-6.997c7.019-7.978 12.609-17.108 16.525-26.987l20.581 49.688c-17.567-8.227-33.882-19.026-37.106-22.701zm53.482 29.579-31.552-76.173c2.099-12.851 1.473-26-1.837-38.593.536-.96 1.062-1.925 1.613-2.878l51.313 123.883c-6.593-1.765-13.127-3.851-19.537-6.239zm161.9-4.943c-42.742 17.705-85.593 22.61-127.412 14.614l-58.112-140.293c8.475-12.488 18.277-24.022 29.234-34.4 6.009-5.684-2.587-14.763-8.589-9.078-12.466 11.795-23.52 24.998-32.939 39.345-.023.036-.035.075-.058.112-.978 1.491-1.939 3.001-2.885 4.529-1.732-3.748-3.71-7.377-5.92-10.864-17.754-74.681-7.24-123.021 3.854-167.886 8.216-33.226 14.812-59.978-5.114-84.566 27.961-18.013 47.358-24.05 60.547-28.151 53.708 69.988 64.503 144.457 65.431 196.504-14.656 5.518-28.797 12.316-42.261 20.313-7.176 4.287-.607 14.922 6.41 10.728 38.04-22.725 103.367-47.705 178.243-27.13l50.09 120.929c-24.451 42.979-61.614 75.036-110.519 95.294zm118.059-109.757-42.071-101.571c6.94 2.469 13.776 5.287 20.445 8.43l30.124 72.725c-2.495 6.937-5.336 13.763-8.498 20.416z"/></g><g><circle cx="237.783" cy="314.535" r="6.249"/></g><g><path d="m419.475 309.445c-13.641 2.239-27.467 5.243-41.479 9.014l-4.097-9.891c-3.163-7.632-14.713-2.861-11.547 4.782l3.535 8.535c-14.66 4.362-29.428 9.522-44.306 15.48l-3.411-8.234c-3.165-7.648-14.707-2.848-11.546 4.782l3.41 8.23c-14.698 6.286-28.79 13.08-42.275 20.383l-3.534-8.53c-3.171-7.655-14.703-2.838-11.546 4.782l4.093 9.881c-8.348 4.813-16.406 9.81-24.175 14.991-6.963 4.644.147 14.929 6.935 10.396 7.095-4.732 14.45-9.309 22.067-13.733l4.697 11.339c3.159 7.629 14.726 2.891 11.546-4.782l-5.276-12.737c13.42-7.313 27.503-14.128 42.25-20.443l5.425 13.097c3.159 7.629 14.726 2.891 11.546-4.782l-5.424-13.095c14.875-5.959 29.652-11.099 44.331-15.421l5.275 12.735c3.163 7.634 14.723 2.885 11.547-4.782l-4.697-11.34c13.049-3.452 25.942-6.227 38.681-8.327 8.153-1.336 6.146-13.665-2.025-12.33z"/></g></g></g></g></svg>