<svg id="Layer_1" enable-background="new 0 0 511.982 511.982" height="512" viewBox="0 0 511.982 511.982" width="512" xmlns="http://www.w3.org/2000/svg"><g><g clip-rule="evenodd" fill-rule="evenodd"><path d="m215.143 401.462c0-17.785 6.229-34.116 16.625-46.928-7.093-11.387-19.56-18.308-32.975-18.308-21.456 0-38.85 17.394-38.85 38.85s17.394 38.85 38.85 38.85c5.832 0 11.589-1.313 16.844-3.841-.326-2.829-.494-5.706-.494-8.623z" fill="#fff"/><path d="m198.793 336.226c13.415 0 25.882 6.921 32.975 18.308 13.666-16.843 34.531-27.608 57.911-27.608 41.165 0 74.536 33.371 74.536 74.536 0 12.008-2.84 23.352-7.883 33.399h55.857c6.822 0 12.353-5.531 12.353-12.353v-30.888c-.004-4.021-1.982-7.961-5.598-10.327l-28.724-18.814v-24.16c-.004-3.63-1.653-7.173-4.591-9.546-.507-.409-1.052-.784-1.634-1.118l-85.358-49.281c-2.018-1.436-4.487-2.28-7.152-2.28h-24.191-22.606-24.191c-2.665 0-5.134.844-7.152 2.28l-85.358 49.281c-.582.334-1.127.709-1.634 1.118-2.938 2.374-4.588 5.917-4.591 9.546v24.16l-28.724 18.814c-3.616 2.366-5.594 6.306-5.598 10.327v30.888c0 6.822 5.531 12.353 12.353 12.353h49.562l20.157 34.913c2.194 3.818 6.252 6.22 10.665 6.225h109.502c-38.249 0-69.769-28.81-74.043-65.913-5.255 2.528-11.012 3.841-16.844 3.841-21.456 0-38.85-17.394-38.85-38.85 0-21.457 17.394-38.851 38.851-38.851z" fill="#dad0d3"/><path d="m289.679 326.926c-23.38 0-44.245 10.765-57.911 27.608-10.396 12.813-16.625 29.143-16.625 46.928 0 2.916.167 5.794.493 8.623 4.274 37.103 35.794 65.913 74.043 65.913 29.157 0 54.405-16.742 66.653-41.137 5.044-10.047 7.883-21.391 7.883-33.399 0-41.165-33.371-74.536-74.536-74.536z" fill="#6d91ac"/><path d="m255.991 266.092c4.835 0 9.57-.429 14.168-1.251 13.505-2.414 25.836-8.217 36.082-16.497 10.875-8.79 19.401-20.371 24.487-33.655 3.4-8.88 5.263-18.522 5.263-28.598 0-4.218-.326-8.36-.955-12.401-3.131-20.117-13.758-37.754-28.935-49.964-13.713-11.032-31.14-17.635-50.11-17.635-18.969 0-36.397 6.602-50.11 17.634-15.177 12.21-25.804 29.847-28.935 49.964-.629 4.042-.955 8.184-.955 12.402 0 10.076 1.863 19.717 5.263 28.598 5.086 13.283 13.611 24.865 24.487 33.655 10.246 8.28 22.577 14.083 36.082 16.497 4.598.822 9.333 1.251 14.168 1.251zm30-80c0 16.568-13.432 30-30 30s-30-13.432-30-30 13.432-30 30-30 30 13.432 30 30z" fill="#fff"/><circle cx="255.991" cy="186.092" fill="#dad0d3" r="30"/><g fill="#6d91ac"><path d="m52.922 176.265 152.229-55.407-9.922-38.956-79.873 29.072-79.874 29.072z"/><path d="m205.151 120.858-152.229 55.407 17.44 36.22 106.585-38.794c3.131-20.117 13.758-37.754 28.935-49.964z"/><path d="m176.949 173.69-106.587 38.795 17.44 36.219 93.453-34.014c-3.4-8.88-5.263-18.522-5.263-28.598-.001-4.218.326-8.36.957-12.402z"/><path d="m181.254 214.69-93.453 34.014 17.44 36.22 100.5-36.579c-10.875-8.79-19.401-20.372-24.487-33.655z"/><path d="m205.741 248.345-100.5 36.579 11.65 24.196 9.462 19.652c.507-.409 1.052-.784 1.634-1.118l85.358-49.281c2.018-1.436 4.487-2.28 7.152-2.28h24.191l-2.865-11.251c-13.505-2.414-25.836-8.217-36.082-16.497z"/></g><path d="m115.356 110.974 79.873-29.071 14.096-5.13-10.261-28.191c-3.762-10.336-14.872-14.231-25.634-11.953-19.79 4.188-39.58 8.376-59.369 12.564-7.356 1.557-12.162 2.829-19.227 5.401s-11.564 4.687-18.2 8.222c-17.852 9.512-35.703 19.025-53.555 28.537-9.708 5.173-15.716 15.298-11.953 25.634l10.261 28.191 14.096-5.13z" fill="#fff"/><path d="m316.754 81.902 79.873 29.072 79.874 29.072 14.096 5.13 10.261-28.191c3.762-10.336-2.245-20.461-11.953-25.634-17.852-9.512-35.703-19.025-53.555-28.537-6.636-3.536-11.135-5.651-18.2-8.222-7.065-2.572-11.871-3.843-19.227-5.401-19.79-4.188-39.579-8.376-59.369-12.564-10.762-2.277-21.872 1.617-25.634 11.953l-10.261 28.191z" fill="#fff"/><path d="m476.5 140.046-79.873-29.072-79.873-29.072-9.922 38.956 152.229 55.407z" fill="#6d91ac"/><path d="m459.061 176.265-152.229-55.407-.731 2.868c15.177 12.21 25.804 29.847 28.932 49.963l106.588 38.795z" fill="#6d91ac"/><path d="m441.621 212.485-106.585-38.794c.629 4.042.955 8.183.955 12.401 0 10.076-1.863 19.717-5.263 28.598l93.453 34.014z" fill="#6d91ac"/><path d="m424.182 248.704-93.453-34.014c-5.086 13.283-13.611 24.865-24.487 33.655l100.5 36.579z" fill="#6d91ac"/><path d="m406.742 284.924-100.5-36.579c-10.246 8.28-22.577 14.083-36.082 16.497l-2.866 11.251h24.191c2.665 0 5.134.844 7.152 2.28l85.358 49.281c.582.334 1.127.709 1.633 1.118l12.119-25.169z" fill="#6d91ac"/></g><g><path d="m493.606 82.526-53.556-28.539c-6.543-3.485-11.585-5.919-19.482-8.793-7.906-2.877-13.331-4.253-20.577-5.786l-59.369-12.564c-16.638-3.521-31.895 4.011-37.102 18.316l-10.26 28.192c-1.889 5.189.787 10.928 5.977 12.816l5.593 2.036-4.929 19.352c-12.997-7.295-27.974-11.463-43.909-11.463s-30.913 4.168-43.91 11.464l-4.929-19.352 5.592-2.035c2.492-.906 4.522-2.767 5.643-5.17 1.121-2.404 1.241-5.154.334-7.646l-10.261-28.194c-5.207-14.306-20.464-21.839-37.102-18.316l-59.368 12.564c-7.247 1.533-12.672 2.91-20.577 5.786-7.897 2.875-12.939 5.309-19.482 8.794l-53.555 28.538c-15.01 7.997-21.855 23.574-16.648 37.878l10.261 28.191c1.478 4.062 5.313 6.583 9.398 6.583 1.135 0 2.291-.195 3.419-.605l5.592-2.035 8.744 18.16c-4.55 2.211-6.784 7.55-5.015 12.408 1.478 4.062 5.313 6.583 9.398 6.583 1.135 0 2.291-.195 3.419-.605l.893-.325 8.744 18.159c-4.55 2.211-6.783 7.55-5.015 12.408 1.478 4.062 5.313 6.583 9.398 6.583 1.135 0 2.291-.195 3.419-.606l.893-.325 8.743 18.159c-4.55 2.212-6.783 7.55-5.014 12.408 1.478 4.062 5.313 6.583 9.398 6.583 1.135 0 2.29-.195 3.419-.605l.893-.325 8.743 18.159c-4.55 2.212-6.783 7.551-5.014 12.409 1.478 4.062 5.313 6.583 9.398 6.583 1.135 0 2.291-.195 3.419-.605l.893-.325 14.469 30.049c-1.836 3.272-2.859 6.996-2.863 10.853v18.756l-24.198 15.85c-6.332 4.142-10.117 11.127-10.124 18.695v30.889c0 12.325 10.028 22.353 22.354 22.353h43.789l17.26 29.896c3.982 6.927 11.387 11.234 19.334 11.241h109.502c30.756 0 57.72-16.515 72.512-41.138h49.996c12.326 0 22.354-10.027 22.354-22.353v-30.9c-.007-7.559-3.792-14.544-10.118-18.682l-24.204-15.854v-18.767c-.004-3.852-1.028-7.575-2.862-10.844l14.468-30.047.893.325c1.129.41 2.284.605 3.419.605 4.084 0 7.92-2.522 9.398-6.583 1.768-4.858-.464-10.196-5.014-12.408l8.743-18.159.893.325c1.129.41 2.284.605 3.419.605 4.084 0 7.92-2.522 9.398-6.583 1.768-4.858-.464-10.196-5.014-12.408l8.743-18.159.893.325c1.129.411 2.284.606 3.419.606 4.084 0 7.92-2.522 9.398-6.583 1.769-4.858-.465-10.197-5.015-12.408l8.744-18.16.893.325c1.129.41 2.284.605 3.419.605 4.084 0 7.92-2.522 9.398-6.583 1.769-4.858-.465-10.197-5.015-12.408l8.744-18.16 5.592 2.035c1.107.402 2.265.603 3.42.603 1.446 0 2.89-.313 4.226-.937 2.404-1.121 4.264-3.151 5.171-5.644l10.261-28.191c5.211-14.302-1.636-29.878-16.644-37.875zm-167.615 103.566c0 38.598-31.402 70-70 70s-70-31.402-70-70 31.402-70 70-70 70 31.402 70 70zm-243.538-63.142c-1.889-5.19-7.629-7.864-12.817-5.978l-42.273 15.386-6.84-18.794c-2.005-5.509 2.201-10.693 7.259-13.389l53.554-28.535c5.994-3.193 10.054-5.152 16.918-7.65 6.872-2.501 11.24-3.609 17.878-5.015l59.368-12.564c5.605-1.185 12.161.082 14.167 5.59l6.841 18.795-42.279 15.388c-5.189 1.89-7.866 7.628-5.977 12.817 1.889 5.19 7.625 7.867 12.817 5.977l27.196-9.899 4.961 19.478-135.22 49.216-8.72-18.11 27.19-9.896c5.19-1.889 7.865-7.627 5.977-12.817zm95.426 18.476c-4.385 7.639-7.678 15.978-9.674 24.805l-92.759 33.762-8.72-18.11zm-11.859 46.883c.17 6.977 1.136 13.759 2.813 20.259l-75.949 27.643-8.719-18.109zm9.952 38.946c3.174 6.146 7.038 11.879 11.485 17.102l-77.133 28.074-8.719-18.109zm28.127 32.33c3.7 2.62 7.608 4.965 11.69 7.012-2.774.594-5.411 1.707-7.795 3.318l-77.372 44.671-11.577-24.043zm85.581 206.413c-35.585 0-64.536-28.951-64.536-64.536s28.951-64.536 64.536-64.536 64.536 28.951 64.536 64.536-28.951 64.536-64.536 64.536zm-84.536-64.536c0 .582.032 1.157.044 1.736-2.1.477-4.252.728-6.395.728-15.908 0-28.85-12.942-28.85-28.85s12.942-28.851 28.85-28.851c7.805 0 15.116 3.116 20.472 8.528-8.913 13.393-14.121 29.452-14.121 46.709zm208.327-11.8c.993.649 1.071 1.67 1.071 1.957v30.889c0 1.297-1.056 2.353-2.354 2.353h-41.292c2.146-7.436 3.32-15.281 3.32-23.398 0-46.613-37.923-84.536-84.536-84.536-22.151 0-42.328 8.575-57.417 22.566-8.947-8.441-20.827-13.266-33.47-13.266-26.936 0-48.85 21.914-48.85 48.851 0 26.936 21.914 48.85 48.85 48.85 3.061 0 6.131-.313 9.151-.891 4.492 17.005 14.166 31.919 27.219 42.963h-54.977c-.808-.001-1.576-.464-2.013-1.225l-20.156-34.913c-1.787-3.094-5.088-5-8.661-5h-49.562c-1.298 0-2.354-1.056-2.354-2.353v-30.879c0-.297.079-1.317 1.077-1.971l28.724-18.814c2.821-1.848 4.521-4.993 4.521-8.365v-24.149c0-.635.318-1.494 1.225-2.016l85.357-49.281c.273-.157.539-.328.795-.511.4-.284.856-.429 1.357-.429h70.988c.5 0 .957.145 1.357.429.257.183.522.354.795.511l85.375 49.292c.889.511 1.207 1.37 1.208 1.994v24.16c0 3.372 1.7 6.518 4.521 8.365zm-32.11-75.076-77.372-44.672c-2.383-1.611-5.021-2.724-7.794-3.318 4.082-2.047 7.989-4.391 11.689-7.011l85.054 30.957zm20.298-42.155-77.133-28.074c4.447-5.223 8.311-10.956 11.485-17.102l74.367 27.067zm17.439-36.22-75.948-27.643c1.677-6.5 2.644-13.283 2.813-20.259l81.855 29.793zm17.439-36.218-92.759-33.762c-1.996-8.827-5.289-17.167-9.674-24.805l111.153 40.457zm17.44-36.219-135.221-49.218 4.961-19.478 138.98 50.585zm37.483-50.209-6.84 18.794-169.145-61.564 6.84-18.795c2.005-5.508 8.561-6.774 14.167-5.59l59.369 12.564c6.637 1.404 11.005 2.513 17.878 5.015 6.864 2.498 10.924 4.457 16.917 7.649l53.555 28.537c5.058 2.696 9.264 7.881 7.259 13.39z"/><path d="m255.992 226.092c22.056 0 40-17.944 40-40s-17.944-40-40-40-40 17.944-40 40 17.944 40 40 40zm0-60c11.028 0 20 8.972 20 20s-8.972 20-20 20-20-8.972-20-20 8.971-20 20-20z"/><path d="m303.779 391.462h-28.2c-5.523 0-10 4.478-10 10s4.477 10 10 10h28.2c5.523 0 10-4.478 10-10s-4.477-10-10-10z"/><path d="m115.356 120.974c5.523 0 10-4.478 10-10s-4.477-10-10-10h-.007c-5.523 0-9.996 4.478-9.996 10s4.48 10 10.003 10z"/></g></g></svg>